<svg data-v-423bf9ae="" xmlns="http://www.w3.org/2000/svg" viewBox="0 0 263 90" class="iconLeft"><!----><!----><!----><g data-v-423bf9ae="" id="82e9611f-f024-4f15-941e-7168fd6fae83" fill="white" transform="matrix(4.222378595280017,0,0,4.222378595280017,106.32652441035457,9.088668994393714)"><path d="M4.66 4.62L4.66 4.62Q6.31 4.62 7.41 5.88L7.41 5.88L7.41 5.88Q7.55 6.03 7.55 6.24L7.55 6.24L7.55 6.24Q7.55 6.55 7.24 6.76L7.24 6.76L7.24 6.76Q7.10 6.86 6.92 6.86L6.92 6.86L6.92 6.86Q6.59 6.86 6.37 6.61L6.37 6.61L6.37 6.61Q6.02 6.23 5.61 6.05L5.61 6.05L5.61 6.05Q5.19 5.88 4.66 5.88L4.66 5.88L4.66 5.88Q3.58 5.88 2.91 6.60L2.91 6.60L2.91 6.60Q2.24 7.32 2.24 8.51L2.24 8.51L2.24 8.51Q2.24 9.27 2.56 9.86L2.56 9.86L2.56 9.86Q2.87 10.46 3.44 10.79L3.44 10.79L3.44 10.79Q4.00 11.13 4.73 11.13L4.73 11.13L4.73 11.13Q5.68 11.13 6.27 10.64L6.27 10.64L6.27 10.64Q6.54 10.44 6.79 10.44L6.79 10.44L6.79 10.44Q6.99 10.44 7.15 10.57L7.15 10.57L7.15 10.57Q7.42 10.79 7.42 11.07L7.42 11.07L7.42 11.07Q7.42 11.28 7.25 11.45L7.25 11.45L7.25 11.45Q6.24 12.39 4.73 12.39L4.73 12.39L4.73 12.39Q3.63 12.39 2.74 11.89L2.74 11.89L2.74 11.89Q1.86 11.38 1.36 10.49L1.36 10.49L1.36 10.49Q0.87 9.60 0.87 8.51L0.87 8.51L0.87 8.51Q0.87 7.39 1.35 6.50L1.35 6.50L1.35 6.50Q1.83 5.61 2.70 5.12L2.70 5.12L2.70 5.12Q3.57 4.62 4.66 4.62L4.66 4.62ZM9.39 2.10L9.39 2.10Q9.39 1.79 9.59 1.60L9.59 1.60L9.59 1.60Q9.79 1.40 10.09 1.40L10.09 1.40L10.09 1.40Q10.40 1.40 10.60 1.60L10.60 1.60L10.60 1.60Q10.79 1.79 10.79 2.10L10.79 2.10L10.79 9.74L10.79 9.74Q10.79 10.26 10.99 10.60L10.99 10.60L10.99 10.60Q11.19 10.93 11.49 10.93L11.49 10.93L11.84 10.93L11.84 10.93Q12.12 10.93 12.30 11.13L12.30 11.13L12.30 11.13Q12.47 11.33 12.47 11.63L12.47 11.63L12.47 11.63Q12.47 11.94 12.21 12.14L12.21 12.14L12.21 12.14Q11.94 12.33 11.52 12.33L11.52 12.33L11.49 12.33L11.49 12.33Q10.89 12.33 10.41 12.00L10.41 12.00L10.41 12.00Q9.93 11.68 9.66 11.08L9.66 11.08L9.66 11.08Q9.39 10.49 9.39 9.74L9.39 9.74L9.39 2.10ZM17.72 4.62L17.72 4.62Q18.80 4.62 19.69 5.13L19.69 5.13L19.69 5.13Q20.58 5.64 21.08 6.53L21.08 6.53L21.08 6.53Q21.59 7.42 21.59 8.51L21.59 8.51L21.59 8.51Q21.59 9.60 21.12 10.49L21.12 10.49L21.12 10.49Q20.65 11.38 19.83 11.89L19.83 11.89L19.83 11.89Q19.01 12.39 18.00 12.39L18.00 12.39L18.00 12.39Q17.19 12.39 16.49 12.05L16.49 12.05L16.49 12.05Q15.79 11.72 15.30 11.12L15.30 11.12L15.30 14.90L15.30 14.90Q15.30 15.22 15.11 15.41L15.11 15.41L15.11 15.41Q14.91 15.61 14.59 15.61L14.59 15.61L14.59 15.61Q14.28 15.61 14.08 15.41L14.08 15.41L14.08 15.41Q13.87 15.22 13.87 14.90L13.87 14.90L13.87 8.51L13.87 8.51Q13.87 7.42 14.39 6.53L14.39 6.53L14.39 6.53Q14.90 5.64 15.77 5.13L15.77 5.13L15.77 5.13Q16.65 4.62 17.72 4.62L17.72 4.62ZM17.72 11.13L17.72 11.13Q18.42 11.13 18.99 10.79L18.99 10.79L18.99 10.79Q19.56 10.44 19.89 9.85L19.89 9.85L19.89 9.85Q20.22 9.25 20.22 8.51L20.22 8.51L20.22 8.51Q20.22 7.77 19.89 7.17L19.89 7.17L19.89 7.17Q19.56 6.57 18.99 6.22L18.99 6.22L18.99 6.22Q18.42 5.88 17.72 5.88L17.72 5.88L17.72 5.88Q17.02 5.88 16.46 6.22L16.46 6.22L16.46 6.22Q15.89 6.57 15.57 7.17L15.57 7.17L15.57 7.17Q15.25 7.77 15.25 8.51L15.25 8.51L15.25 8.51Q15.25 9.25 15.57 9.85L15.57 9.85L15.57 9.85Q15.89 10.44 16.46 10.79L16.46 10.79L16.46 10.79Q17.02 11.13 17.72 11.13L17.72 11.13ZM24.12 10.61L24.12 10.61Q24.51 10.61 24.80 10.90L24.80 10.90L24.80 10.90Q25.09 11.19 25.09 11.59L25.09 11.59L25.09 11.59Q25.09 11.98 24.81 12.27L24.81 12.27L24.81 12.27Q24.53 12.56 24.12 12.56L24.12 12.56L24.12 12.56Q23.73 12.56 23.44 12.27L23.44 12.27L23.44 12.27Q23.16 11.98 23.16 11.59L23.16 11.59L23.16 11.59Q23.16 11.19 23.44 10.90L23.44 10.90L23.44 10.90Q23.73 10.61 24.12 10.61L24.12 10.61ZM27.19 5.39L27.19 5.39Q27.19 5.07 27.39 4.87L27.39 4.87L27.39 4.87Q27.59 4.68 27.90 4.68L27.90 4.68L27.90 4.68Q28.22 4.68 28.42 4.87L28.42 4.87L28.42 4.87Q28.62 5.07 28.62 5.39L28.62 5.39L28.62 11.62L28.62 11.62Q28.62 11.93 28.42 12.13L28.42 12.13L28.42 12.13Q28.22 12.33 27.90 12.33L27.90 12.33L27.90 12.33Q27.59 12.33 27.39 12.13L27.39 12.13L27.39 12.13Q27.19 11.93 27.19 11.62L27.19 11.62L27.19 5.39ZM27.90 1.58L27.90 1.58Q28.28 1.58 28.55 1.85L28.55 1.85L28.55 1.85Q28.83 2.13 28.83 2.51L28.83 2.51L28.83 2.51Q28.83 2.88 28.55 3.16L28.55 3.16L28.55 3.16Q28.28 3.43 27.90 3.43L27.90 3.43L27.90 3.43Q27.52 3.43 27.25 3.16L27.25 3.16L27.25 3.16Q26.98 2.88 26.98 2.51L26.98 2.51L26.98 2.51Q26.98 2.13 27.25 1.85L27.25 1.85L27.25 1.85Q27.52 1.58 27.90 1.58L27.90 1.58ZM33.96 4.62L33.96 4.62Q34.87 4.62 35.60 4.91L35.60 4.91L35.60 4.91Q36.32 5.21 36.74 5.73L36.74 5.73L36.74 5.73Q36.92 5.95 36.92 6.17L36.92 6.17L36.92 6.17Q36.92 6.41 36.68 6.61L36.68 6.61L36.68 6.61Q36.53 6.72 36.29 6.72L36.29 6.72L36.29 6.72Q35.92 6.72 35.63 6.45L35.63 6.45L35.63 6.45Q35.28 6.13 34.89 6.00L34.89 6.00L34.89 6.00Q34.50 5.87 33.94 5.87L33.94 5.87L33.94 5.87Q33.29 5.87 32.88 6.08L32.88 6.08L32.88 6.08Q32.47 6.30 32.47 6.69L32.47 6.69L32.47 6.69Q32.47 6.97 32.61 7.16L32.61 7.16L32.61 7.16Q32.75 7.35 33.14 7.51L33.14 7.51L33.14 7.51Q33.53 7.67 34.27 7.83L34.27 7.83L34.27 7.83Q35.80 8.13 36.44 8.68L36.44 8.68L36.44 8.68Q37.07 9.23 37.07 10.09L37.07 10.09L37.07 10.09Q37.07 10.74 36.72 11.26L36.72 11.26L36.72 11.26Q36.37 11.79 35.69 12.09L35.69 12.09L35.69 12.09Q35.01 12.39 34.06 12.39L34.06 12.39L34.06 12.39Q33.11 12.39 32.27 12.10L32.27 12.10L32.27 12.10Q31.43 11.80 30.95 11.33L30.95 11.33L30.95 11.33Q30.77 11.14 30.77 10.89L30.77 10.89L30.77 10.89Q30.77 10.56 31.05 10.35L31.05 10.35L31.05 10.35Q31.32 10.15 31.54 10.15L31.54 10.15L31.54 10.15Q31.82 10.15 32.07 10.40L32.07 10.40L32.07 10.40Q32.34 10.70 32.87 10.91L32.87 10.91L32.87 10.91Q33.40 11.13 34.01 11.13L34.01 11.13L34.01 11.13Q34.80 11.13 35.25 10.86L35.25 10.86L35.25 10.86Q35.69 10.60 35.69 10.15L35.69 10.15L35.69 10.15Q35.69 9.72 35.25 9.43L35.25 9.43L35.25 9.43Q34.82 9.14 33.78 8.95L33.78 8.95L33.78 8.95Q31.09 8.43 31.09 6.73L31.09 6.73L31.09 6.73Q31.09 6.05 31.50 5.57L31.50 5.57L31.50 5.57Q31.91 5.10 32.56 4.86L32.56 4.86L32.56 4.86Q33.22 4.62 33.96 4.62L33.96 4.62Z"></path></g><!----><g data-v-423bf9ae="" id="512a378e-0716-4ba3-93b8-b09d9ab0e145" transform="matrix(2.8125,0,0,2.8125,0,0)" stroke="none" fill="white"><path d="M4.029 14.362L14.362 4.028l.707.707L4.736 15.07zM17.135 27.47L27.47 17.135l.707.707-10.333 10.333zM4.029 17.841l.707-.707 10.333 10.334-.707.707zM17.135 4.735l.708-.707L28.176 14.36l-.707.707z"></path><g><path d="M16 1.414l1.683 1.683L16 4.779l-1.683-1.683L16 1.414M16 0l-3.097 3.097L16 6.194l3.097-3.097L16 0zM16 27.221l1.683 1.683L16 30.586l-1.683-1.683L16 27.221m0-1.415l-3.097 3.097L16 32l3.097-3.097L16 25.806zM3.097 14.317L4.779 16l-1.683 1.683L1.414 16l1.683-1.683m0-1.414L0 16l3.097 3.097L6.194 16l-3.097-3.097zM28.903 14.317L30.586 16l-1.683 1.683L27.221 16l1.682-1.683m0-1.414L25.806 16l3.097 3.097L32 16l-3.097-3.097z"></path></g></g><!----></svg>